<svg xmlns="http://www.w3.org/2000/svg" xmlns:xlink="http://www.w3.org/1999/xlink" width="363" zoomAndPan="magnify" viewBox="0 0 272.25 30.000001" height="40" preserveAspectRatio="xMidYMid meet" version="1.0"><defs><g/><clipPath id="0131c1dad0"><path d="M 4.027344 0 L 23 0 L 23 29 L 4.027344 29 Z M 4.027344 0 " clip-rule="nonzero"/></clipPath><clipPath id="5eeebdcb1c"><path d="M 208 7 L 267.496094 7 L 267.496094 29.03125 L 208 29.03125 Z M 208 7 " clip-rule="nonzero"/></clipPath><clipPath id="9aebe29a7b"><rect x="0" width="60" y="0" height="23"/></clipPath></defs><path fill="#7a5cbb" d="M 80.21875 0.675781 C 82.429688 0.667969 84.753906 0.714844 86.953125 0.660156 L 86.960938 2.714844 L 88.628906 2.714844 C 88.625 3.5625 88.566406 4.738281 88.636719 5.554688 C 88.796875 5.703125 88.960938 5.53125 89.171875 5.660156 C 89.242188 6.03125 89.214844 7.246094 89.210938 7.660156 L 90.90625 7.65625 C 90.867188 8.621094 90.886719 9.59375 90.851562 10.5625 L 93.695312 10.5625 C 93.714844 8.917969 93.679688 7.265625 93.707031 5.617188 C 94.445312 5.621094 95.179688 5.617188 95.917969 5.609375 C 95.992188 4.0625 95.914062 2.257812 95.945312 0.660156 C 97.992188 0.75 100.605469 0.664062 102.703125 0.675781 C 102.726562 1.324219 102.714844 2.058594 102.71875 2.714844 L 104.402344 2.71875 C 104.324219 5.902344 104.386719 9.308594 104.386719 12.515625 L 104.398438 28.308594 C 102.738281 28.253906 100.5625 28.273438 98.902344 28.3125 L 98.898438 25.410156 C 98.644531 25.410156 98.519531 25.417969 98.277344 25.347656 C 98.128906 25.171875 98.210938 20.039062 98.210938 19.410156 C 98.175781 18.101562 98.226562 16.769531 98.210938 15.460938 C 98.203125 14.847656 98.242188 14.109375 98.167969 13.511719 L 98.066406 13.46875 C 97.8125 13.503906 97.859375 13.464844 97.664062 13.605469 C 97.601562 13.730469 97.652344 17.945312 97.660156 18.414062 C 96.910156 18.402344 96.125 18.410156 95.367188 18.410156 C 95.4375 19.867188 95.382812 21.855469 95.394531 23.363281 C 93.628906 23.316406 91.679688 23.339844 89.90625 23.367188 L 89.910156 20.460938 L 89.226562 20.449219 C 89.1875 19.855469 89.207031 19.019531 89.207031 18.40625 L 87.636719 18.425781 L 87.640625 15.511719 L 86.945312 15.507812 C 86.953125 15.03125 87.101562 13.632812 86.667969 13.355469 L 86.542969 13.460938 C 86.296875 13.96875 86.382812 15.25 86.386719 15.871094 L 86.386719 19.445312 C 86.386719 22.347656 86.335938 25.421875 86.398438 28.308594 C 84.714844 28.257812 82.582031 28.269531 80.902344 28.3125 L 80.894531 25.414062 C 80.730469 25.398438 80.386719 25.398438 80.207031 25.394531 C 80.132812 23.917969 80.183594 22.027344 80.1875 20.523438 L 80.1875 11.578125 L 80.183594 4.597656 C 80.179688 3.441406 80.128906 1.792969 80.21875 0.675781 Z M 99.882812 25.402344 L 99.882812 27.46875 C 100.105469 27.457031 100.324219 27.441406 100.546875 27.441406 C 101.300781 27.457031 102.773438 27.402344 103.410156 27.460938 L 103.402344 3.570312 C 103.226562 3.570312 102.886719 3.585938 102.722656 3.574219 C 102.785156 10.828125 102.601562 18.183594 102.726562 25.394531 C 102.085938 25.394531 100.472656 25.453125 99.882812 25.402344 Z M 95.984375 15.503906 L 93.699219 15.507812 L 93.714844 20.449219 C 92.78125 20.449219 91.773438 20.429688 90.84375 20.457031 C 90.898438 21.144531 90.878906 21.800781 90.871094 22.492188 L 93 22.492188 C 93.445312 22.496094 93.984375 22.488281 94.417969 22.511719 C 94.316406 21.226562 94.390625 18.902344 94.390625 17.539062 C 95.113281 17.546875 95.953125 17.53125 96.664062 17.558594 C 96.652344 15.902344 96.652344 14.246094 96.65625 12.589844 C 97.171875 12.609375 97.6875 12.617188 98.203125 12.605469 C 98.160156 12.027344 98.203125 11.160156 98.214844 10.558594 L 95.945312 10.5625 C 96.035156 12.058594 95.992188 13.988281 95.984375 15.503906 Z M 95.070312 23.066406 C 95.058594 21.414062 95.058594 19.757812 95.070312 18.101562 L 97.328125 18.101562 C 97.328125 16.574219 97.386719 14.640625 97.3125 13.152344 C 97.597656 13.160156 97.902344 13.199219 98.160156 13.078125 C 98.03125 12.851562 97.234375 12.90625 96.96875 12.90625 C 96.964844 14.542969 96.941406 16.234375 96.976562 17.863281 L 94.707031 17.855469 C 94.703125 19.40625 94.65625 21.285156 94.734375 22.808594 C 93.347656 22.796875 91.960938 22.800781 90.574219 22.820312 C 90.578125 22.371094 90.625 20.894531 90.546875 20.542969 L 90.460938 20.472656 L 90.277344 20.488281 C 90.179688 20.675781 90.21875 21.066406 90.222656 21.292969 C 90.222656 21.878906 90.21875 22.480469 90.230469 23.0625 C 91.769531 23.023438 93.519531 23.054688 95.070312 23.066406 Z M 89.164062 7.984375 L 89.226562 8.164062 C 89.445312 8.257812 89.964844 8.21875 90.238281 8.214844 C 90.214844 8.980469 90.203125 9.75 90.207031 10.515625 C 90.355469 10.578125 90.410156 10.570312 90.570312 10.554688 C 90.570312 9.691406 90.566406 8.828125 90.554688 7.964844 C 90.136719 7.96875 89.570312 7.957031 89.164062 7.984375 Z M 88.257812 5.691406 C 88.382812 5.453125 88.320312 3.433594 88.316406 3.011719 C 88.023438 3.015625 87.164062 3.015625 86.902344 3.050781 L 86.988281 3.230469 C 87.253906 3.320312 87.679688 3.269531 87.980469 3.257812 C 87.964844 3.667969 87.878906 5.296875 88.015625 5.605469 C 88.089844 5.632812 88.183594 5.667969 88.257812 5.691406 Z M 87.648438 5.625 L 87.636719 3.550781 C 87.445312 3.558594 87.148438 3.585938 86.964844 3.570312 C 86.96875 4.234375 86.957031 4.957031 86.988281 5.617188 C 87.203125 5.617188 87.4375 5.617188 87.648438 5.625 Z M 102.640625 3.050781 C 102.835938 3.402344 103.332031 3.277344 103.726562 3.265625 C 103.652344 8.308594 103.710938 13.507812 103.714844 18.558594 L 103.714844 24.46875 C 103.710938 25.492188 103.675781 26.75 103.730469 27.75 L 99.574219 27.75 C 99.578125 27.226562 99.617188 25.886719 99.542969 25.460938 L 99.421875 25.355469 L 99.3125 25.359375 C 99.160156 25.566406 99.199219 25.902344 99.210938 26.160156 C 99.214844 26.769531 99.222656 27.382812 99.199219 27.996094 C 100.808594 28.003906 102.484375 27.988281 104.089844 28.03125 L 104.074219 3.007812 C 103.722656 3.015625 102.960938 3.011719 102.640625 3.050781 Z M 89.21875 10.570312 L 89.921875 10.558594 C 89.902344 9.875 89.898438 9.195312 89.910156 8.515625 L 89.203125 8.53125 C 89.269531 9.050781 89.226562 10.015625 89.21875 10.570312 Z M 81.199219 27.992188 C 82.828125 28.007812 84.453125 28.015625 86.082031 28.011719 L 86.078125 17.65625 L 86.082031 14.789062 C 86.082031 14.410156 86.097656 13.542969 86.046875 13.207031 C 86.257812 13.101562 86.699219 13.234375 86.933594 13.078125 L 86.933594 12.976562 C 86.777344 12.890625 86.183594 12.894531 85.953125 12.882812 L 85.742188 12.933594 C 85.703125 13.082031 85.707031 13.273438 85.710938 13.429688 C 85.816406 18.171875 85.566406 23.035156 85.730469 27.769531 C 84.871094 27.714844 82.414062 27.707031 81.5625 27.769531 C 81.566406 27.378906 81.644531 25.664062 81.492188 25.457031 L 81.355469 25.386719 L 81.253906 25.421875 C 81.140625 25.710938 81.230469 27.511719 81.199219 27.992188 Z M 88.625 15.511719 C 88.625 15.972656 88.542969 17.21875 88.742188 17.515625 C 88.886719 17.589844 88.988281 17.5625 89.148438 17.546875 L 89.210938 17.464844 C 89.214844 17.183594 89.253906 15.660156 89.175781 15.539062 C 88.945312 15.503906 88.855469 15.5 88.625 15.511719 Z M 88.300781 17.253906 C 88.324219 17.023438 88.363281 15.722656 88.28125 15.574219 C 88.101562 15.5 88.175781 15.507812 87.984375 15.542969 C 87.921875 15.765625 87.941406 17.757812 87.96875 18.058594 C 88.125 18.121094 88.164062 18.121094 88.332031 18.125 C 88.640625 18.074219 89.039062 18.183594 89.203125 18.042969 L 89.207031 17.90625 C 89.054688 17.785156 88.699219 17.898438 88.375 17.847656 C 88.292969 17.757812 88.304688 17.398438 88.300781 17.253906 Z M 81.882812 25.40625 C 81.878906 26.101562 81.882812 26.792969 81.894531 27.488281 C 82.453125 27.421875 83.371094 27.460938 83.960938 27.46875 C 84.429688 27.457031 84.941406 27.4375 85.40625 27.445312 L 85.402344 12.597656 C 85.917969 12.609375 86.429688 12.613281 86.945312 12.609375 C 86.949219 11.972656 86.972656 11.191406 86.949219 10.5625 L 84.710938 10.5625 C 84.742188 15.492188 84.660156 20.476562 84.726562 25.394531 C 84.0625 25.394531 82.492188 25.457031 81.882812 25.40625 Z M 81.882812 25.40625 " fill-opacity="1" fill-rule="nonzero"/><path fill="#7a5cbb" d="M 88.332031 18.125 C 88.171875 17.792969 88.203125 17.609375 88.300781 17.253906 C 88.304688 17.398438 88.292969 17.757812 88.375 17.847656 C 88.699219 17.898438 89.054688 17.785156 89.207031 17.90625 L 89.203125 18.042969 C 89.039062 18.183594 88.640625 18.074219 88.332031 18.125 Z M 88.332031 18.125 " fill-opacity="1" fill-rule="nonzero"/><path fill="#7a5cbb" d="M 85.953125 12.882812 C 86.183594 12.894531 86.777344 12.890625 86.933594 12.976562 L 86.933594 13.078125 C 86.699219 13.234375 86.257812 13.101562 86.046875 13.207031 C 86.015625 13.160156 85.96875 12.953125 85.953125 12.882812 Z M 85.953125 12.882812 " fill-opacity="1" fill-rule="nonzero"/><path fill="#7a5cbb" d="M 181.457031 0.625 C 182.597656 0.738281 184.746094 0.671875 185.96875 0.660156 L 185.972656 2.714844 L 187.65625 2.714844 C 187.605469 4.984375 187.648438 7.417969 187.648438 9.695312 L 187.644531 23.253906 C 187.636719 24.941406 187.636719 26.625 187.648438 28.308594 C 185.808594 28.289062 183.964844 28.285156 182.121094 28.292969 C 180.65625 28.292969 179.089844 28.269531 177.640625 28.3125 L 177.652344 25.398438 L 176.953125 25.394531 L 176.960938 23.355469 L 175.40625 23.363281 L 175.40625 20.464844 L 174.722656 20.445312 C 174.710938 19.777344 174.722656 19.082031 174.726562 18.410156 C 174.207031 18.40625 173.667969 18.417969 173.148438 18.425781 L 173.160156 15.515625 L 172.449219 15.507812 C 172.445312 15.167969 172.515625 13.667969 172.394531 13.496094 C 172.238281 13.484375 172.089844 13.460938 171.945312 13.519531 C 171.796875 13.773438 171.871094 26.832031 171.894531 28.304688 C 170.140625 28.277344 168.152344 28.265625 166.410156 28.308594 C 166.363281 27.457031 166.398438 26.273438 166.398438 25.394531 L 165.703125 25.410156 L 165.695312 8.601562 L 165.699219 3.574219 C 165.703125 2.671875 165.675781 1.511719 165.742188 0.636719 C 166.121094 0.703125 167.453125 0.679688 167.921875 0.679688 L 172.457031 0.664062 L 172.464844 2.714844 L 174.136719 2.714844 C 174.128906 3.542969 174.078125 4.769531 174.136719 5.5625 C 174.261719 5.636719 174.566406 5.613281 174.726562 5.613281 C 174.714844 6.285156 174.722656 6.984375 174.722656 7.660156 L 176.394531 7.660156 C 176.410156 8.601562 176.332031 9.566406 176.378906 10.492188 C 176.523438 10.621094 176.65625 10.503906 176.925781 10.601562 C 177.011719 10.878906 176.96875 12.222656 176.964844 12.609375 L 178.636719 12.601562 C 178.632812 13.015625 178.554688 15.277344 178.679688 15.492188 C 178.847656 15.5 179.015625 15.511719 179.179688 15.527344 C 179.242188 15.628906 179.230469 17.28125 179.234375 17.546875 L 180.886719 17.546875 C 180.941406 18.425781 180.804688 19.59375 180.949219 20.414062 L 181.035156 20.453125 C 181.269531 20.421875 181.191406 20.457031 181.363281 20.316406 C 181.582031 19.878906 181.429688 19.046875 181.433594 18.535156 L 181.460938 13.4375 Z M 185.984375 25.394531 C 183.535156 25.382812 181.082031 25.386719 178.632812 25.410156 C 178.636719 26.078125 178.628906 26.789062 178.695312 27.453125 C 178.964844 27.449219 179.222656 27.441406 179.496094 27.460938 C 181.859375 27.371094 184.285156 27.5 186.636719 27.433594 C 186.675781 26.789062 186.667969 26.089844 186.65625 25.4375 C 186.621094 22.921875 186.660156 20.410156 186.660156 17.894531 L 186.65625 8.917969 C 186.65625 8.257812 186.726562 3.828125 186.5625 3.613281 C 186.371094 3.550781 186.160156 3.570312 185.960938 3.578125 C 186.023438 10.828125 185.878906 18.160156 185.984375 25.394531 Z M 170.222656 25.394531 C 169.625 25.398438 167.902344 25.449219 167.359375 25.386719 C 167.371094 26.082031 167.378906 26.789062 167.425781 27.480469 C 167.949219 27.429688 168.8125 27.445312 169.359375 27.46875 C 169.796875 27.460938 170.464844 27.472656 170.882812 27.429688 C 170.960938 25.851562 170.898438 23.835938 170.890625 22.226562 L 170.898438 12.597656 L 172.457031 12.601562 C 172.457031 11.921875 172.453125 11.242188 172.441406 10.5625 L 170.207031 10.5625 Z M 186.980469 27.75 L 181.179688 27.75 C 180.539062 27.746094 178.898438 27.707031 178.324219 27.773438 C 178.328125 27.308594 178.421875 25.644531 178.214844 25.398438 L 178.105469 25.375 C 177.902344 25.574219 177.957031 25.867188 177.96875 26.140625 C 177.972656 26.765625 177.960938 27.386719 177.9375 28.011719 C 180.109375 27.980469 182.304688 28.042969 184.476562 28.015625 C 185.328125 28.003906 186.507812 28.054688 187.335938 28 L 187.335938 3.015625 C 186.941406 3.023438 186.277344 3.011719 185.902344 3.042969 C 185.949219 3.171875 185.945312 3.25 186.101562 3.269531 C 186.378906 3.300781 186.699219 3.277344 186.980469 3.269531 L 186.96875 18.152344 C 186.96875 21.3125 186.921875 24.597656 186.980469 27.75 Z M 174.640625 7.992188 C 174.835938 8.347656 175.332031 8.222656 175.726562 8.214844 C 175.71875 8.878906 175.683594 9.863281 175.734375 10.496094 C 175.828125 10.582031 175.957031 10.574219 176.089844 10.585938 C 176.082031 9.710938 176.082031 8.835938 176.085938 7.964844 C 175.726562 7.964844 174.964844 7.953125 174.640625 7.992188 Z M 166.714844 27.992188 C 168.257812 28.011719 170.042969 28.058594 171.578125 28.003906 L 171.578125 13.160156 C 171.902344 13.160156 172.121094 13.191406 172.425781 13.085938 L 172.433594 13.027344 C 171.953125 12.863281 171.714844 12.90625 171.210938 12.914062 L 171.207031 22.796875 C 171.207031 24.34375 171.164062 26.238281 171.246094 27.757812 C 170.488281 27.753906 167.695312 27.6875 167.066406 27.78125 C 167.074219 27.285156 167.160156 25.796875 166.964844 25.445312 L 166.863281 25.394531 L 166.753906 25.472656 C 166.730469 25.917969 166.710938 26.316406 166.714844 26.757812 C 166.714844 27.128906 166.734375 27.632812 166.714844 27.992188 Z M 180.585938 17.855469 C 180.21875 17.855469 179.5 17.84375 179.164062 17.878906 C 179.195312 17.945312 179.222656 18.046875 179.277344 18.0625 C 179.523438 18.140625 179.957031 18.105469 180.234375 18.101562 C 180.230469 18.410156 180.15625 20.273438 180.289062 20.429688 L 180.597656 20.472656 C 180.574219 19.601562 180.570312 18.726562 180.585938 17.855469 Z M 174.710938 17.554688 C 174.714844 17.128906 174.746094 15.898438 174.695312 15.546875 C 174.480469 15.484375 174.335938 15.5 174.109375 15.511719 C 174.167969 15.988281 174.109375 17.289062 174.15625 17.496094 C 174.386719 17.570312 174.472656 17.5625 174.710938 17.554688 Z M 175.71875 23.046875 L 177.019531 23.050781 C 176.855469 22.660156 176.484375 22.796875 176.070312 22.804688 C 176.078125 22.121094 176.113281 21.167969 176.066406 20.511719 C 175.972656 20.425781 175.851562 20.421875 175.722656 20.402344 C 175.695312 21.261719 175.714844 22.183594 175.71875 23.046875 Z M 172.453125 3.578125 L 172.46875 5.625 L 173.152344 5.613281 L 173.144531 3.574219 Z M 176.960938 22.488281 C 176.960938 22.132812 176.980469 20.75 176.9375 20.480469 C 176.710938 20.441406 176.609375 20.449219 176.382812 20.460938 C 176.386719 20.769531 176.375 22.242188 176.414062 22.453125 C 176.609375 22.523438 176.753906 22.5 176.960938 22.488281 Z M 173.457031 15.480469 C 173.46875 16.347656 173.464844 17.230469 173.484375 18.101562 L 174.785156 18.097656 C 174.613281 17.71875 174.207031 17.851562 173.808594 17.867188 C 173.816406 17.511719 173.886719 15.722656 173.765625 15.527344 Z M 175.414062 8.511719 C 175.199219 8.515625 174.925781 8.53125 174.714844 8.523438 C 174.734375 9.203125 174.738281 9.882812 174.726562 10.5625 L 175.398438 10.546875 C 175.386719 9.871094 175.367188 9.1875 175.414062 8.511719 Z M 176.960938 13.464844 L 176.964844 15.511719 L 177.640625 15.503906 L 177.636719 13.476562 Z M 172.410156 3.039062 L 172.484375 3.222656 C 172.730469 3.324219 173.210938 3.277344 173.5 3.269531 C 173.480469 3.742188 173.378906 5.183594 173.550781 5.5625 C 173.714844 5.640625 173.65625 5.621094 173.851562 5.601562 C 173.835938 4.800781 173.847656 3.820312 173.800781 3.03125 C 173.402344 3.03125 172.792969 3.011719 172.410156 3.039062 Z M 176.902344 12.933594 L 176.988281 13.117188 C 177.25 13.207031 177.6875 13.15625 177.992188 13.148438 C 177.976562 13.710938 177.871094 15.003906 178.035156 15.460938 C 178.128906 15.535156 178.199219 15.535156 178.320312 15.554688 C 178.371094 14.914062 178.324219 13.601562 178.316406 12.910156 C 178 12.914062 177.179688 12.898438 176.902344 12.933594 Z M 179.21875 18.414062 C 179.246094 19.113281 179.234375 19.746094 179.222656 20.445312 L 179.898438 20.445312 L 179.910156 18.410156 Z M 179.21875 18.414062 " fill-opacity="1" fill-rule="nonzero"/><path fill="#7a5cbb" d="M 179.164062 17.878906 C 179.5 17.84375 180.21875 17.855469 180.585938 17.855469 C 180.570312 18.726562 180.574219 19.601562 180.597656 20.472656 L 180.289062 20.429688 C 180.15625 20.273438 180.230469 18.410156 180.234375 18.101562 C 179.957031 18.105469 179.523438 18.140625 179.277344 18.0625 C 179.222656 18.046875 179.195312 17.945312 179.164062 17.878906 Z M 179.164062 17.878906 " fill-opacity="1" fill-rule="nonzero"/><path fill="#7a5cbb" d="M 118.367188 0.65625 L 118.394531 0.667969 C 118.5 0.800781 118.460938 2.441406 118.457031 2.714844 L 120.132812 2.714844 C 120.121094 3.414062 120.058594 4.886719 120.132812 5.523438 C 120.265625 5.726562 120.375 5.5 120.679688 5.679688 C 120.765625 6.027344 120.726562 7.21875 120.722656 7.660156 L 122.40625 7.65625 C 122.355469 8.429688 122.386719 9.484375 122.386719 10.273438 L 122.386719 14.921875 L 122.398438 28.308594 C 120.667969 28.265625 118.632812 28.273438 116.902344 28.308594 C 116.878906 27.375 116.898438 26.355469 116.894531 25.414062 L 116.195312 25.386719 L 116.207031 18.40625 L 111.089844 18.410156 C 111.152344 19.007812 111.136719 19.71875 111.136719 20.324219 L 111.144531 28.3125 C 109.382812 28.265625 107.414062 28.273438 105.652344 28.308594 L 105.644531 25.390625 L 104.953125 25.398438 L 104.949219 11.9375 C 104.945312 9.941406 104.875 7.5625 104.945312 5.609375 C 105.609375 5.640625 106.503906 5.613281 107.1875 5.613281 C 107.1875 5.070312 107.109375 0.914062 107.304688 0.703125 C 108.328125 0.617188 109.867188 0.679688 110.925781 0.671875 C 113.398438 0.652344 115.894531 0.703125 118.367188 0.65625 Z M 110.164062 27.457031 C 110.148438 26.546875 110.144531 25.632812 110.152344 24.722656 L 110.152344 17.539062 L 116.199219 17.550781 C 116.167969 16.882812 116.214844 16.175781 116.214844 15.503906 L 109.460938 15.503906 C 109.496094 18.800781 109.425781 22.117188 109.484375 25.390625 C 108.535156 25.394531 107.585938 25.40625 106.640625 25.429688 C 106.632812 26.105469 106.617188 26.792969 106.640625 27.46875 C 107.476562 27.390625 109.253906 27.457031 110.164062 27.457031 Z M 120.722656 25.394531 C 120.105469 25.398438 118.40625 25.457031 117.878906 25.398438 C 117.871094 26.085938 117.878906 26.773438 117.898438 27.460938 C 118.0625 27.457031 118.296875 27.449219 118.457031 27.460938 L 121.410156 27.445312 L 121.40625 8.519531 L 120.714844 8.527344 Z M 113.164062 7.65625 L 116.195312 7.664062 C 116.207031 6.980469 116.207031 6.296875 116.199219 5.613281 C 114.101562 5.617188 111.519531 5.683594 109.460938 5.617188 L 109.484375 8.875 C 109.488281 9.367188 109.449219 10.082031 109.496094 10.550781 L 110.160156 10.539062 C 110.152344 9.578125 110.148438 8.617188 110.152344 7.652344 Z M 111.144531 10.5625 L 116.203125 10.5625 C 116.203125 9.914062 116.226562 9.144531 116.207031 8.507812 C 114.515625 8.523438 112.824219 8.53125 111.132812 8.523438 Z M 110.457031 17.859375 L 110.460938 24.179688 C 110.460938 25.3125 110.429688 26.625 110.480469 27.75 C 109.089844 27.742188 107.703125 27.746094 106.3125 27.753906 C 106.3125 27.398438 106.363281 25.585938 106.234375 25.394531 C 105.765625 25.5 105.972656 27.484375 105.941406 28.003906 C 107.097656 28.003906 108.355469 28.03125 109.5 28.003906 C 109.925781 28.011719 110.410156 28.027344 110.828125 28.007812 L 110.828125 18.101562 C 112.070312 18.105469 113.3125 18.105469 114.558594 18.097656 C 114.847656 18.097656 116.082031 18.179688 116.253906 18.011719 C 116.058594 17.757812 115.484375 17.835938 115.167969 17.847656 C 113.597656 17.898438 112.027344 17.839844 110.457031 17.859375 Z M 113.9375 8.21875 C 114.308594 8.222656 116.019531 8.289062 116.210938 8.144531 L 116.207031 8.0625 C 115.933594 7.882812 114.613281 7.96875 114.203125 7.96875 L 110.46875 7.972656 C 110.457031 8.664062 110.382812 9.90625 110.585938 10.515625 L 110.664062 10.578125 C 110.890625 10.226562 110.824219 8.710938 110.824219 8.21875 C 111.851562 8.21875 112.914062 8.203125 113.9375 8.21875 Z M 119.148438 5.480469 L 119.148438 3.558594 C 118.953125 3.5625 118.679688 3.582031 118.492188 3.578125 C 118.480469 4.257812 118.476562 4.941406 118.476562 5.621094 C 118.648438 5.625 119.023438 5.660156 119.136719 5.5625 Z M 119.492188 3.257812 C 119.457031 4.03125 119.460938 4.796875 119.460938 5.574219 C 119.609375 5.636719 119.652344 5.648438 119.8125 5.675781 C 119.859375 5.378906 119.816406 3.414062 119.8125 3.023438 C 119.40625 3.027344 118.800781 3.011719 118.410156 3.039062 L 118.476562 3.222656 C 118.734375 3.324219 119.195312 3.273438 119.492188 3.257812 Z M 120.640625 7.992188 C 120.832031 8.34375 121.332031 8.222656 121.726562 8.214844 L 121.710938 20.132812 C 121.710938 22.554688 121.644531 25.371094 121.734375 27.753906 C 120.457031 27.746094 118.839844 27.707031 117.585938 27.757812 C 117.582031 27.28125 117.652344 25.703125 117.449219 25.417969 L 117.328125 25.402344 C 117.164062 25.585938 117.203125 25.792969 117.210938 26.050781 C 117.210938 26.585938 117.234375 27.492188 117.199219 28 C 118.453125 28 120.972656 28.09375 122.085938 27.988281 C 122.003906 21.386719 122.0625 14.574219 122.082031 7.960938 C 121.734375 7.964844 120.957031 7.953125 120.640625 7.992188 Z M 120.640625 7.992188 " fill-opacity="1" fill-rule="nonzero"/><path fill="#7a5cbb" d="M 188.21875 0.648438 C 188.585938 0.695312 189.515625 0.675781 189.925781 0.675781 L 193.109375 0.671875 L 203.953125 0.671875 C 203.988281 1.277344 203.972656 2.09375 203.972656 2.71875 L 205.644531 2.714844 C 205.695312 4.554688 205.648438 6.667969 205.652344 8.53125 C 201.976562 8.457031 198.085938 8.519531 194.390625 8.523438 C 194.40625 9.1875 194.394531 9.898438 194.398438 10.566406 L 199.46875 10.558594 L 199.464844 12.609375 L 201.140625 12.601562 L 201.144531 18.414062 C 198.910156 18.390625 196.625 18.40625 194.390625 18.414062 L 194.402344 20.457031 L 195.617188 20.453125 C 198.296875 20.386719 201.277344 20.441406 203.976562 20.457031 C 203.976562 21.140625 203.976562 21.824219 203.972656 22.507812 C 204.421875 22.472656 205.167969 22.488281 205.640625 22.484375 C 205.664062 24.414062 205.648438 26.382812 205.652344 28.316406 C 204.972656 28.285156 204.222656 28.285156 203.539062 28.292969 C 198.679688 28.367188 193.753906 28.183594 188.898438 28.3125 L 188.898438 25.394531 L 188.207031 25.417969 Z M 189.863281 25.390625 L 189.90625 27.480469 C 190.136719 27.460938 190.441406 27.421875 190.664062 27.441406 C 192.207031 27.5 194.164062 27.429688 195.761719 27.429688 L 204.660156 27.460938 C 204.660156 26.773438 204.707031 24.011719 204.617188 23.484375 C 204.425781 23.328125 204.238281 23.351562 203.976562 23.351562 L 203.996094 25.425781 C 202.492188 25.351562 200.863281 25.40625 199.347656 25.390625 C 196.195312 25.363281 193.011719 25.425781 189.863281 25.390625 Z M 199.511719 15.511719 L 192.710938 15.507812 L 192.71875 18.632812 C 192.71875 19.085938 192.691406 20 192.746094 20.417969 C 192.972656 20.453125 193.121094 20.464844 193.351562 20.472656 C 193.445312 20.300781 193.40625 17.929688 193.40625 17.558594 C 195.65625 17.535156 197.902344 17.539062 200.148438 17.5625 C 200.148438 16.804688 200.203125 14.089844 200.117188 13.546875 C 200 13.449219 199.6875 13.460938 199.519531 13.453125 C 199.40625 13.824219 199.484375 15.089844 199.511719 15.511719 Z M 194.085938 8.214844 L 205.34375 8.21875 C 205.316406 6.492188 205.367188 4.742188 205.328125 3.023438 C 204.980469 3.023438 204.191406 3.007812 203.878906 3.050781 C 204.09375 3.402344 204.59375 3.277344 205 3.265625 C 204.925781 4.6875 204.960938 6.53125 204.984375 7.972656 L 193.703125 7.96875 C 193.707031 8.457031 193.683594 10.160156 193.742188 10.515625 C 193.886719 10.558594 193.9375 10.570312 194.082031 10.578125 Z M 192.722656 10.566406 L 193.398438 10.558594 C 193.402344 9.628906 193.382812 8.589844 193.414062 7.667969 C 197.164062 7.644531 200.914062 7.648438 204.667969 7.671875 C 204.667969 7.023438 204.710938 4.148438 204.617188 3.667969 C 204.472656 3.550781 204.160156 3.578125 203.960938 3.578125 C 203.976562 4.25 203.996094 4.949219 203.972656 5.621094 C 200.265625 5.621094 196.410156 5.570312 192.710938 5.621094 C 192.722656 7.242188 192.683594 8.964844 192.722656 10.566406 Z M 199.46875 13.15625 L 200.523438 13.15625 C 200.425781 13.957031 200.445312 16.957031 200.488281 17.859375 C 198.316406 17.859375 195.847656 17.800781 193.707031 17.863281 C 193.710938 18.558594 193.683594 19.855469 193.769531 20.496094 L 193.992188 20.445312 C 194.160156 20.25 194.085938 18.46875 194.082031 18.101562 L 200.828125 18.105469 C 200.773438 16.488281 200.828125 14.570312 200.820312 12.917969 C 200.53125 12.90625 199.71875 12.84375 199.488281 12.972656 Z M 189.210938 26.328125 C 189.210938 26.863281 189.226562 27.464844 189.210938 27.996094 L 205.324219 28.015625 C 205.367188 26.308594 205.273438 24.453125 205.332031 22.796875 C 204.933594 22.800781 204.277344 22.785156 203.902344 22.816406 C 204.023438 23.082031 204.054688 23.0625 204.359375 23.0625 C 204.5625 23.0625 204.773438 23.046875 204.980469 23.039062 C 204.972656 24.476562 204.917969 26.34375 204.988281 27.753906 L 194.625 27.746094 L 191.390625 27.746094 C 190.914062 27.746094 190.046875 27.726562 189.589844 27.769531 C 189.585938 27.296875 189.652344 25.667969 189.453125 25.402344 C 189.289062 25.414062 189.339844 25.386719 189.234375 25.503906 C 189.214844 25.800781 189.210938 26.03125 189.210938 26.328125 Z M 189.210938 26.328125 " fill-opacity="1" fill-rule="nonzero"/><path fill="#7a5cbb" d="M 152.25 0.644531 C 153.019531 0.738281 155.785156 0.675781 156.734375 0.671875 C 156.71875 1.34375 156.726562 2.046875 156.722656 2.71875 L 158.410156 2.710938 C 158.382812 3.921875 158.386719 5.152344 158.390625 6.363281 C 158.433594 13.671875 158.316406 21.003906 158.398438 28.308594 C 156.703125 28.261719 154.601562 28.273438 152.90625 28.308594 C 152.882812 27.371094 152.898438 26.355469 152.898438 25.414062 L 152.199219 25.398438 L 152.210938 18.40625 L 147.125 18.414062 C 147.167969 19.445312 147.136719 20.71875 147.136719 21.761719 L 147.144531 28.304688 C 145.3125 28.285156 143.480469 28.285156 141.648438 28.3125 L 141.644531 25.390625 L 140.953125 25.394531 L 140.945312 7.71875 C 140.945312 5.398438 140.910156 2.984375 140.953125 0.667969 C 142.359375 0.714844 144.035156 0.675781 145.457031 0.671875 C 145.472656 1.339844 145.464844 2.042969 145.46875 2.714844 L 147.140625 2.714844 C 147.125 5.332031 147.128906 7.953125 147.148438 10.570312 C 148.828125 10.558594 150.511719 10.558594 152.191406 10.570312 C 152.238281 9.765625 152.203125 8.691406 152.199219 7.855469 L 152.203125 3.195312 C 152.207031 2.582031 152.171875 1.1875 152.25 0.644531 Z M 145.46875 25.394531 C 144.875 25.394531 143.132812 25.453125 142.632812 25.398438 C 142.632812 26.050781 142.617188 26.824219 142.648438 27.464844 C 143.390625 27.417969 145.386719 27.417969 146.160156 27.460938 L 146.148438 24.445312 L 146.152344 17.542969 L 152.179688 17.542969 C 152.199219 16.863281 152.210938 16.183594 152.214844 15.503906 L 145.460938 15.503906 C 145.488281 18.800781 145.488281 22.097656 145.46875 25.394531 Z M 156.726562 25.394531 C 156.15625 25.398438 154.363281 25.457031 153.882812 25.40625 C 153.882812 26.054688 153.867188 26.84375 153.917969 27.484375 C 154.039062 27.472656 154.382812 27.433594 154.484375 27.449219 C 155.457031 27.46875 156.429688 27.46875 157.40625 27.445312 L 157.402344 3.570312 C 157.203125 3.574219 156.910156 3.585938 156.71875 3.574219 L 156.722656 17.929688 C 156.722656 20.390625 156.6875 22.9375 156.726562 25.394531 Z M 146.828125 28 L 146.832031 18.101562 C 147.59375 18.101562 151.859375 18.199219 152.210938 17.972656 C 152.027344 17.796875 147.125 17.851562 146.453125 17.863281 C 146.539062 21.078125 146.34375 24.589844 146.480469 27.757812 C 145.207031 27.730469 143.585938 27.714844 142.316406 27.765625 C 142.320312 27.382812 142.402344 25.605469 142.246094 25.414062 L 142.058594 25.421875 C 141.855469 25.683594 141.984375 27.5 141.957031 27.996094 L 145.246094 28.007812 C 145.710938 28.011719 146.382812 28.035156 146.828125 28 Z M 146.148438 10.574219 C 146.144531 8.335938 146.089844 5.804688 146.171875 3.585938 L 145.496094 3.585938 C 145.449219 4.382812 145.492188 5.472656 145.492188 6.296875 L 145.46875 10.574219 C 145.667969 10.574219 145.957031 10.5625 146.148438 10.574219 Z M 153.578125 27.757812 C 153.582031 27.304688 153.679688 25.695312 153.425781 25.417969 L 153.308594 25.414062 C 153.171875 25.585938 153.207031 26.023438 153.210938 26.265625 C 153.210938 26.730469 153.242188 27.566406 153.199219 28.003906 L 158.089844 28.027344 L 158.082031 3.015625 C 157.734375 3.019531 156.949219 3.007812 156.636719 3.050781 C 156.835938 3.402344 157.328125 3.277344 157.726562 3.265625 C 157.664062 8.648438 157.714844 14.125 157.714844 19.515625 L 157.714844 24.882812 C 157.714844 25.628906 157.675781 27.042969 157.742188 27.746094 C 156.402344 27.761719 154.871094 27.714844 153.578125 27.757812 Z M 146.464844 10.542969 C 146.621094 10.566406 146.648438 10.566406 146.800781 10.523438 C 146.867188 9.914062 146.832031 8.675781 146.832031 8.03125 L 146.816406 3.027344 C 146.507812 3.035156 145.707031 2.9375 145.484375 3.089844 L 145.46875 3.273438 L 146.507812 3.269531 C 146.308594 5.316406 146.519531 8.394531 146.464844 10.542969 Z M 146.464844 10.542969 " fill-opacity="1" fill-rule="nonzero"/><path fill="#7a5cbb" d="M 125.238281 0.625 C 125.683594 0.71875 128.632812 0.671875 129.265625 0.671875 L 138.714844 0.671875 L 138.726562 2.714844 L 140.398438 2.714844 C 140.375 4.652344 140.378906 6.589844 140.410156 8.527344 C 136.695312 8.460938 132.824219 8.519531 129.105469 8.523438 C 129.1875 9.257812 129.136719 11.488281 129.136719 12.335938 C 129.125 15.042969 129.128906 17.753906 129.148438 20.460938 C 132.257812 20.394531 135.574219 20.441406 138.695312 20.453125 L 138.71875 21.125 L 138.726562 22.492188 L 140.394531 22.488281 C 140.386719 24.429688 140.386719 26.367188 140.398438 28.308594 C 138.46875 28.246094 136.265625 28.292969 134.3125 28.292969 C 131.511719 28.28125 128.710938 28.289062 125.910156 28.308594 C 125.90625 27.34375 125.90625 26.378906 125.910156 25.414062 L 125.183594 25.386719 C 125.171875 24.722656 125.21875 24.035156 125.207031 23.355469 C 124.683594 23.355469 124.160156 23.359375 123.636719 23.371094 L 123.648438 20.457031 L 122.957031 20.453125 C 122.929688 15.613281 123.066406 10.378906 122.925781 5.589844 C 123.546875 5.648438 124.53125 5.613281 125.171875 5.605469 C 125.257812 4.089844 125.1875 2.207031 125.238281 0.625 Z M 138.722656 5.617188 L 127.460938 5.621094 L 127.472656 20.460938 L 128.152344 20.445312 L 128.152344 7.65625 L 139.40625 7.660156 L 139.402344 3.574219 L 138.726562 3.578125 C 138.722656 4.25 138.710938 4.945312 138.722656 5.617188 Z M 138.636719 3.050781 C 138.839844 3.402344 139.328125 3.277344 139.726562 3.269531 C 139.707031 4.835938 139.707031 6.402344 139.722656 7.972656 C 136.046875 7.960938 132.121094 7.90625 128.453125 7.972656 C 128.464844 9.167969 128.417969 20.277344 128.527344 20.417969 C 128.632812 20.445312 128.722656 20.464844 128.828125 20.476562 C 128.8125 16.429688 128.898438 12.238281 128.820312 8.214844 L 140.085938 8.214844 L 140.082031 3.015625 C 139.71875 3.019531 138.96875 3.007812 138.636719 3.050781 Z M 140.082031 22.796875 C 139.632812 22.804688 139.101562 22.796875 138.65625 22.816406 C 138.691406 22.902344 138.707031 22.992188 138.777344 23.015625 C 139.015625 23.09375 139.457031 23.054688 139.71875 23.046875 C 139.707031 24.613281 139.710938 26.179688 139.730469 27.75 L 131.039062 27.75 C 129.597656 27.75 127.984375 27.714844 126.5625 27.757812 C 126.582031 27.195312 126.613281 26 126.558594 25.464844 C 126.4375 25.382812 126.484375 25.402344 126.308594 25.421875 C 126.179688 25.578125 126.226562 25.917969 126.226562 26.144531 L 126.21875 28 C 129.921875 28.046875 133.640625 27.988281 137.347656 28.011719 C 138.222656 28.019531 139.222656 28.058594 140.085938 28.019531 Z M 125.210938 22.332031 C 125.214844 21.960938 125.246094 20.804688 125.191406 20.496094 C 125.003906 20.425781 124.816406 20.449219 124.617188 20.457031 C 124.621094 20.777344 124.613281 22.246094 124.652344 22.445312 C 124.84375 22.511719 124.953125 22.496094 125.15625 22.484375 C 125.230469 22.402344 125.214844 22.445312 125.210938 22.332031 Z M 124.316406 22.816406 C 124.320312 22.488281 124.308594 22.152344 124.308594 21.824219 C 124.3125 21.554688 124.375 20.628906 124.261719 20.46875 C 124.078125 20.445312 124.144531 20.433594 123.980469 20.503906 C 123.917969 20.742188 123.949219 22.605469 123.953125 22.976562 L 124 23.039062 L 124.242188 23.035156 C 124.539062 23.054688 124.871094 23.109375 125.128906 22.96875 L 125.121094 22.878906 C 124.898438 22.757812 124.578125 22.804688 124.316406 22.816406 Z M 138.726562 25.394531 L 130.65625 25.402344 C 129.753906 25.402344 127.675781 25.46875 126.867188 25.402344 C 126.875 25.839844 126.863281 27.078125 126.933594 27.414062 C 127.035156 27.484375 127.199219 27.453125 127.332031 27.449219 C 130.144531 27.429688 132.960938 27.429688 135.773438 27.441406 C 136.777344 27.441406 138.476562 27.503906 139.40625 27.441406 L 139.40625 23.359375 L 138.714844 23.355469 Z M 138.726562 25.394531 " fill-opacity="1" fill-rule="nonzero"/><path fill="#7a5cbb" d="M 124.242188 23.035156 C 124.296875 22.9375 124.144531 22.253906 124.308594 21.824219 C 124.308594 22.152344 124.320312 22.488281 124.316406 22.816406 C 124.578125 22.804688 124.898438 22.757812 125.121094 22.878906 L 125.128906 22.96875 C 124.871094 23.109375 124.539062 23.054688 124.242188 23.035156 Z M 124.242188 23.035156 " fill-opacity="1" fill-rule="nonzero"/><path fill="#7a5cbb" d="M 159.035156 0.632812 C 159.472656 0.710938 162.863281 0.671875 163.496094 0.671875 C 163.453125 1.289062 163.46875 2.085938 163.46875 2.714844 L 165.15625 2.714844 C 165.066406 5.042969 165.164062 7.609375 165.136719 9.964844 C 165.070312 16.054688 165.226562 22.234375 165.132812 28.3125 C 163.457031 28.265625 161.324219 28.269531 159.648438 28.3125 L 159.644531 25.390625 L 158.953125 25.40625 C 158.9375 22.773438 158.820312 1.03125 159.035156 0.632812 Z M 160.640625 25.414062 C 160.640625 26.082031 160.625 26.773438 160.660156 27.4375 L 161.222656 27.453125 C 162.203125 27.472656 163.175781 27.433594 164.148438 27.457031 L 164.152344 3.566406 L 163.460938 3.582031 L 163.46875 18.226562 C 163.46875 20.574219 163.429688 23.058594 163.476562 25.398438 C 162.539062 25.394531 161.570312 25.421875 160.640625 25.414062 Z M 163.386719 3.050781 C 163.578125 3.402344 164.078125 3.277344 164.472656 3.265625 L 164.460938 19.246094 L 164.457031 24.636719 C 164.457031 25.5625 164.429688 26.835938 164.488281 27.746094 C 163.40625 27.746094 161.328125 27.6875 160.328125 27.769531 C 160.320312 27.203125 160.363281 25.914062 160.296875 25.445312 C 160.15625 25.375 160.210938 25.386719 160.042969 25.4375 C 159.933594 25.601562 159.96875 25.878906 159.972656 26.085938 C 159.957031 26.722656 159.957031 27.359375 159.972656 27.992188 C 161.191406 28.007812 163.71875 28.09375 164.828125 28.003906 L 164.828125 3.015625 C 164.480469 3.019531 163.699219 3.007812 163.386719 3.050781 Z M 163.386719 3.050781 " fill-opacity="1" fill-rule="nonzero"/><path fill="#7a5cbb" d="M 25.128906 0.527344 C 26.640625 0.585938 38.320312 0.46875 38.5625 0.582031 C 38.679688 0.828125 38.632812 2.226562 38.65625 2.632812 C 39.21875 2.605469 39.757812 2.648438 40.324219 2.601562 C 40.359375 3.164062 40.289062 3.785156 40.316406 4.355469 C 40.332031 4.71875 40.332031 5.171875 40.300781 5.535156 C 40.535156 5.519531 40.6875 5.527344 40.921875 5.539062 C 40.929688 6.222656 40.925781 6.90625 40.910156 7.585938 C 41.167969 7.585938 42.402344 7.554688 42.554688 7.59375 C 42.597656 8.007812 42.574219 8.667969 42.574219 9.109375 L 42.570312 11.976562 L 42.574219 19.171875 C 42.574219 20.542969 42.542969 22.027344 42.597656 23.390625 C 41.988281 23.332031 40.949219 23.367188 40.292969 23.359375 C 40.316406 23.601562 40.320312 23.816406 40.316406 24.0625 C 40.28125 25.484375 40.316406 26.902344 40.332031 28.324219 C 40.101562 28.382812 39.113281 28.347656 38.828125 28.347656 L 36.589844 28.335938 L 29.875 28.328125 C 28.695312 28.328125 26.867188 28.285156 25.71875 28.371094 C 25.765625 27.488281 25.734375 26.339844 25.75 25.421875 C 25.507812 25.421875 25.261719 25.429688 25.023438 25.4375 C 25.015625 24.757812 25.039062 24.050781 25.042969 23.367188 C 24.503906 23.378906 24.011719 23.347656 23.460938 23.386719 C 23.507812 22.523438 23.476562 21.34375 23.480469 20.453125 C 23.246094 20.449219 23 20.460938 22.765625 20.46875 C 22.808594 16.972656 22.769531 13.394531 22.769531 9.890625 L 22.769531 7.246094 C 22.769531 6.785156 22.746094 5.960938 22.828125 5.539062 C 22.996094 5.488281 24.710938 5.519531 25.039062 5.515625 C 25.03125 5.457031 25.027344 5.402344 25.023438 5.34375 C 24.949219 3.898438 25.082031 2.324219 25.023438 0.867188 C 25.019531 0.710938 25.023438 0.644531 25.128906 0.527344 Z M 36.34375 20.402344 C 36.296875 19.988281 36.328125 18.894531 36.332031 18.414062 L 36.335938 14.671875 L 36.335938 10.511719 C 36.335938 10.046875 36.304688 8.871094 36.351562 8.449219 C 34.863281 8.492188 33.371094 8.433594 31.886719 8.429688 C 31.296875 8.425781 30.703125 8.429688 30.113281 8.4375 C 29.804688 8.441406 29.34375 8.464844 29.046875 8.445312 C 29.03125 8.464844 29.015625 8.488281 28.992188 8.519531 C 28.992188 9.257812 28.996094 10.15625 28.996094 10.875 L 29 18.40625 C 29.003906 18.859375 29.039062 20.046875 29 20.441406 C 30.753906 20.378906 32.613281 20.460938 34.378906 20.425781 C 34.664062 20.421875 36.183594 20.445312 36.34375 20.402344 Z M 40.921875 20.457031 C 40.214844 20.5 39.40625 20.441406 38.660156 20.480469 C 38.59375 22.125 38.664062 23.800781 38.667969 25.441406 C 37.792969 25.488281 36.707031 25.460938 35.820312 25.460938 L 29.695312 25.433594 L 27.816406 25.429688 C 27.503906 25.429688 27.035156 25.410156 26.742188 25.441406 C 26.742188 25.925781 26.769531 27.054688 26.722656 27.496094 C 27.074219 27.472656 27.347656 27.46875 27.703125 27.480469 L 35.742188 27.46875 L 38.128906 27.46875 C 38.410156 27.46875 39.054688 27.449219 39.308594 27.480469 C 39.304688 26.882812 39.25 22.773438 39.371094 22.515625 C 39.558594 22.472656 41.195312 22.5 41.550781 22.484375 C 41.574219 19.441406 41.582031 16.398438 41.570312 13.359375 L 41.570312 10.273438 C 41.570312 9.714844 41.585938 9.007812 41.558594 8.453125 C 41.324219 8.460938 41.132812 8.46875 40.898438 8.457031 L 40.898438 17.589844 C 40.898438 18.496094 40.9375 19.570312 40.921875 20.457031 Z M 27.328125 20.453125 C 27.601562 20.417969 27.761719 20.421875 28.035156 20.457031 C 27.960938 19.871094 28.003906 18.347656 28 17.6875 L 28.007812 12.050781 C 28.003906 10.578125 28.03125 9.027344 28 7.5625 C 28.539062 7.632812 29.765625 7.59375 30.375 7.601562 C 32.363281 7.625 34.351562 7.558594 36.34375 7.585938 C 36.324219 7.101562 36.3125 6 36.351562 5.53125 C 35.96875 5.609375 35.074219 5.554688 34.628906 5.558594 C 32.953125 5.570312 31.277344 5.566406 29.601562 5.554688 C 29.160156 5.554688 27.707031 5.519531 27.359375 5.570312 C 27.328125 8.992188 27.320312 12.417969 27.332031 15.839844 L 27.335938 18.871094 C 27.335938 19.339844 27.355469 19.996094 27.328125 20.453125 Z M 28.707031 8.125 C 29.089844 8.195312 31.03125 8.15625 31.449219 8.140625 C 32.109375 8.117188 36.039062 8.273438 36.332031 8.09375 C 36.363281 8.015625 36.351562 8 36.328125 7.921875 C 36.144531 7.8125 29.144531 7.898438 28.316406 7.886719 C 28.269531 8.40625 28.289062 9.160156 28.292969 9.699219 L 28.300781 12.667969 C 28.304688 14.480469 28.304688 16.296875 28.300781 18.109375 C 28.300781 18.472656 28.253906 20.25 28.375 20.429688 C 28.503906 20.449219 28.574219 20.445312 28.703125 20.4375 C 28.679688 17.921875 28.675781 15.40625 28.6875 12.886719 C 28.691406 11.34375 28.660156 9.660156 28.707031 8.125 Z M 24.175781 22.820312 C 24.175781 22.328125 24.207031 20.925781 24.152344 20.507812 C 24.054688 20.429688 23.914062 20.453125 23.78125 20.460938 C 23.769531 21.292969 23.757812 22.257812 23.796875 23.082031 C 24.203125 23.074219 24.679688 23.089844 25.070312 23.070312 C 25.058594 22.992188 25.066406 22.878906 25.007812 22.84375 C 24.835938 22.738281 24.378906 22.804688 24.175781 22.820312 Z M 39.640625 22.808594 C 39.484375 24.367188 39.667969 26.199219 39.625 27.777344 C 38.789062 27.753906 37.871094 27.78125 37.023438 27.777344 L 31.222656 27.773438 L 28.144531 27.777344 C 27.675781 27.777344 26.898438 27.757812 26.441406 27.796875 C 26.417969 27.265625 26.464844 25.917969 26.402344 25.484375 C 26.328125 25.421875 26.246094 25.4375 26.132812 25.433594 C 25.984375 25.5625 26.042969 26.128906 26.046875 26.332031 C 26.050781 26.863281 26.078125 27.527344 26.050781 28.050781 L 40 28.042969 C 40 26.515625 39.945312 24.539062 40.011719 23.039062 C 40.433594 23.101562 41.761719 23.085938 42.238281 23.066406 C 42.289062 22.183594 42.257812 21.238281 42.257812 20.34375 L 42.265625 15.214844 L 42.261719 10.542969 C 42.261719 9.753906 42.296875 8.679688 42.242188 7.910156 C 41.835938 7.886719 41.503906 7.878906 41.09375 7.886719 C 40.984375 7.902344 40.964844 7.886719 40.894531 7.949219 C 40.882812 8.066406 40.871094 8.027344 40.933594 8.113281 C 41.175781 8.226562 41.597656 8.148438 41.878906 8.140625 L 41.867188 17.296875 C 41.867188 19.078125 41.832031 21.054688 41.898438 22.824219 C 41.132812 22.792969 40.40625 22.800781 39.640625 22.808594 Z M 39.644531 3.167969 C 39.632812 3.660156 39.605469 4.191406 39.613281 4.679688 C 39.621094 4.949219 39.636719 5.265625 39.632812 5.53125 L 40.027344 5.535156 C 39.976562 4.863281 40.050781 3.488281 39.976562 2.964844 C 39.949219 2.945312 39.929688 2.925781 39.902344 2.929688 C 39.605469 2.941406 38.867188 2.886719 38.664062 2.996094 L 38.625 3.066406 L 38.65625 3.148438 C 38.851562 3.195312 39.429688 3.175781 39.644531 3.167969 Z M 24.476562 22.503906 L 25.003906 22.480469 C 25.070312 22.367188 25.042969 20.75 25.050781 20.449219 L 24.476562 20.46875 C 24.503906 20.945312 24.507812 22.023438 24.476562 22.503906 Z M 38.660156 3.476562 C 38.574219 3.757812 38.648438 5.144531 38.625 5.5625 C 38.921875 5.527344 39.03125 5.523438 39.328125 5.539062 C 39.289062 4.929688 39.300781 4.109375 39.3125 3.488281 C 39.097656 3.492188 38.871094 3.507812 38.660156 3.476562 Z M 38.660156 3.476562 " fill-opacity="1" fill-rule="nonzero"/><path fill="#7a5cbb" d="M 53.433594 0.527344 C 54.429688 0.632812 55.703125 0.46875 56.695312 0.546875 C 56.75 0.9375 56.742188 2.136719 56.757812 2.625 C 57.304688 2.632812 57.847656 2.625 58.394531 2.605469 C 58.417969 2.769531 58.429688 2.933594 58.421875 3.101562 C 58.398438 3.910156 58.417969 4.722656 58.398438 5.53125 L 59.011719 5.511719 C 59.027344 6.132812 59.019531 6.96875 58.992188 7.589844 C 59.566406 7.566406 60.070312 7.605469 60.675781 7.550781 C 60.5625 11.535156 60.714844 15.578125 60.65625 19.570312 C 60.636719 20.824219 60.632812 22.136719 60.683594 23.390625 C 60.007812 23.335938 59.101562 23.375 58.386719 23.355469 C 58.425781 23.789062 58.402344 24.5 58.40625 24.953125 C 58.410156 26.09375 58.390625 27.214844 58.425781 28.359375 C 55.691406 28.335938 52.960938 28.332031 50.226562 28.355469 C 48.726562 28.339844 47.222656 28.332031 45.722656 28.335938 C 45.101562 28.339844 44.40625 28.316406 43.796875 28.359375 C 43.871094 27.613281 43.824219 26.234375 43.839844 25.425781 C 43.613281 25.417969 43.335938 25.441406 43.105469 25.453125 C 43.078125 24.84375 43.125 23.78125 43.125 23.125 L 43.125 16.703125 L 43.121094 7.882812 C 43.121094 7.152344 43.058594 0.808594 43.199219 0.605469 C 43.359375 0.503906 45.777344 0.550781 46.1875 0.550781 L 51.402344 0.554688 C 51.886719 0.554688 53.015625 0.582031 53.433594 0.527344 Z M 53.613281 20.417969 C 53.886719 20.425781 54.160156 20.425781 54.4375 20.417969 C 54.386719 20.070312 54.417969 19.292969 54.417969 18.90625 L 54.425781 16.304688 L 54.425781 11.238281 C 54.421875 10.375 54.394531 9.308594 54.433594 8.457031 C 53.46875 8.496094 52.425781 8.449219 51.453125 8.457031 C 51.105469 8.460938 50.648438 8.425781 50.3125 8.441406 C 49.972656 8.457031 49.714844 8.460938 49.375 8.445312 C 49.332031 9.289062 49.355469 10.25 49.351562 11.105469 L 49.351562 17.207031 L 49.359375 19.253906 C 49.363281 19.578125 49.375 20.109375 49.34375 20.421875 C 50.582031 20.425781 52.421875 20.484375 53.613281 20.417969 Z M 59.023438 20.457031 C 58.242188 20.480469 57.527344 20.453125 56.726562 20.492188 C 56.753906 20.988281 56.722656 21.585938 56.722656 22.09375 C 56.726562 23.210938 56.738281 24.332031 56.757812 25.449219 C 54.015625 25.496094 51.15625 25.457031 48.40625 25.457031 L 46.300781 25.449219 C 45.84375 25.445312 45.277344 25.421875 44.828125 25.464844 C 44.84375 26.136719 44.832031 26.808594 44.835938 27.484375 C 45.28125 27.472656 45.9375 27.449219 46.367188 27.476562 C 47.195312 27.445312 48.144531 27.472656 48.984375 27.476562 L 53.558594 27.476562 L 56.136719 27.46875 C 56.425781 27.46875 57.144531 27.445312 57.402344 27.480469 C 57.355469 25.890625 57.382812 24.078125 57.386719 22.46875 C 58 22.539062 58.988281 22.5 59.632812 22.484375 C 59.671875 20.054688 59.636719 17.632812 59.644531 15.199219 L 59.640625 11.328125 C 59.644531 10.363281 59.667969 9.441406 59.644531 8.464844 C 59.414062 8.46875 59.21875 8.46875 58.988281 8.453125 L 58.996094 15.683594 C 58.996094 17.230469 58.957031 18.925781 59.023438 20.457031 Z M 49.054688 8.121094 C 49.378906 8.191406 50.058594 8.171875 50.414062 8.171875 L 52.421875 8.164062 C 52.90625 8.160156 53.390625 8.152344 53.875 8.167969 C 54.027344 8.171875 54.222656 8.199219 54.359375 8.113281 C 54.429688 8.066406 54.417969 8.074219 54.433594 7.996094 C 54.296875 7.859375 54.121094 7.875 53.933594 7.875 C 53.121094 7.882812 52.304688 7.898438 51.488281 7.886719 C 50.621094 7.890625 49.644531 7.847656 48.789062 7.890625 L 48.683594 7.933594 C 48.617188 8.097656 48.644531 9.308594 48.644531 9.601562 C 48.652344 13.019531 48.628906 16.441406 48.660156 19.859375 C 48.660156 20.085938 48.613281 20.332031 48.804688 20.457031 C 48.921875 20.46875 48.878906 20.476562 48.980469 20.40625 C 49.101562 20.171875 49.042969 19.066406 49.042969 18.726562 L 49.050781 15.113281 C 49.050781 12.824219 49.007812 10.402344 49.054688 8.121094 Z M 57.40625 3.488281 C 57.183594 3.492188 56.949219 3.5 56.734375 3.472656 C 56.664062 3.882812 56.730469 5.066406 56.710938 5.566406 C 56.992188 5.523438 57.140625 5.519531 57.425781 5.539062 C 57.359375 4.964844 57.394531 4.09375 57.40625 3.488281 Z M 60.320312 7.910156 C 59.917969 7.886719 59.453125 7.867188 59.046875 7.890625 C 58.953125 7.972656 58.964844 7.9375 58.953125 8.042969 C 59.117188 8.21875 59.730469 8.15625 59.972656 8.136719 C 60.003906 9.128906 59.953125 10.367188 59.953125 11.386719 L 59.953125 18.03125 C 59.957031 19.632812 59.9375 21.222656 59.996094 22.824219 C 59.238281 22.800781 58.476562 22.796875 57.71875 22.808594 C 57.679688 23.609375 57.726562 26.679688 57.683594 27.722656 C 57.683594 27.753906 57.539062 27.773438 57.464844 27.773438 C 56.410156 27.777344 55.34375 27.78125 54.285156 27.777344 L 47.71875 27.78125 C 46.675781 27.785156 45.566406 27.757812 44.535156 27.800781 C 44.519531 27.457031 44.566406 25.574219 44.464844 25.453125 C 44.332031 25.433594 44.308594 25.433594 44.175781 25.453125 C 44.09375 25.613281 44.148438 26.101562 44.140625 26.3125 C 44.140625 26.847656 44.167969 27.53125 44.148438 28.050781 C 48.785156 28.019531 53.445312 28.097656 58.082031 28.042969 C 58.09375 26.90625 58.097656 25.769531 58.089844 24.636719 C 58.089844 24.195312 58.070312 23.457031 58.101562 23.039062 C 58.625 23.113281 59.753906 23.074219 60.324219 23.070312 C 60.394531 22.25 60.355469 20.980469 60.359375 20.132812 L 60.359375 10.390625 C 60.359375 9.699219 60.394531 8.550781 60.320312 7.910156 Z M 58.101562 5.539062 C 58.113281 4.886719 58.113281 3.546875 58.074219 2.917969 C 57.761719 2.941406 57.058594 2.945312 56.734375 2.921875 C 56.707031 3.0625 56.691406 3.027344 56.746094 3.128906 C 56.984375 3.226562 57.457031 3.175781 57.730469 3.160156 C 57.722656 3.496094 57.675781 5.242188 57.734375 5.503906 C 57.855469 5.550781 57.972656 5.539062 58.101562 5.539062 Z M 54.4375 5.53125 C 54.082031 5.605469 53.269531 5.5625 52.875 5.558594 L 49.414062 5.554688 C 49.078125 5.554688 48.003906 5.535156 47.71875 5.574219 C 47.632812 5.957031 47.703125 7.746094 47.691406 8.285156 C 47.65625 9.746094 47.695312 11.277344 47.695312 12.75 L 47.6875 20.414062 L 48.371094 20.457031 C 48.324219 20.019531 48.34375 19.4375 48.347656 18.988281 C 48.363281 17.484375 48.332031 15.976562 48.359375 14.472656 C 48.359375 12.253906 48.414062 9.75 48.328125 7.554688 C 48.707031 7.636719 50.21875 7.589844 50.691406 7.585938 L 54.433594 7.582031 C 54.40625 6.984375 54.414062 6.136719 54.4375 5.53125 Z M 54.4375 5.53125 " fill-opacity="1" fill-rule="nonzero"/><path fill="#7a5cbb" d="M 62.496094 0.53125 C 63.601562 0.601562 65.152344 0.550781 66.296875 0.550781 L 73.574219 0.550781 L 75.527344 0.546875 C 75.929688 0.542969 76.679688 0.503906 77.042969 0.578125 C 77.152344 0.769531 77.101562 2.351562 77.066406 2.644531 C 77.277344 2.609375 78.492188 2.574219 78.699219 2.613281 C 78.738281 2.6875 78.792969 8.261719 78.726562 8.441406 C 78.636719 8.496094 77.078125 8.453125 76.863281 8.449219 L 70.351562 8.4375 C 69.480469 8.4375 68.28125 8.496094 67.460938 8.429688 C 67.445312 9.097656 67.484375 9.835938 67.449219 10.484375 L 70.765625 10.484375 C 71.148438 10.484375 72.210938 10.460938 72.519531 10.527344 C 72.628906 10.761719 72.582031 12.273438 72.539062 12.578125 C 72.65625 12.558594 74.042969 12.53125 74.179688 12.539062 C 74.234375 12.734375 74.226562 13.019531 74.226562 13.226562 C 74.226562 14.953125 74.179688 16.691406 74.253906 18.414062 C 73.980469 18.421875 73.671875 18.414062 73.394531 18.40625 C 71.425781 18.359375 69.429688 18.449219 67.460938 18.382812 C 67.414062 19.015625 67.507812 19.824219 67.4375 20.421875 C 67.9375 20.453125 68.730469 20.425781 69.25 20.429688 L 74.789062 20.425781 C 75.199219 20.425781 76.75 20.394531 77.035156 20.445312 C 77.160156 20.652344 77.089844 22.199219 77.070312 22.515625 C 77.296875 22.5 78.53125 22.449219 78.710938 22.496094 C 78.777344 22.78125 78.738281 23.953125 78.742188 24.316406 C 78.753906 25.664062 78.71875 27.015625 78.777344 28.367188 C 74.585938 28.382812 70.328125 28.285156 66.140625 28.328125 L 63.453125 28.335938 C 62.972656 28.335938 62.359375 28.316406 61.890625 28.371094 C 61.960938 27.457031 61.871094 26.371094 61.933594 25.425781 C 61.667969 25.417969 61.476562 25.4375 61.214844 25.464844 C 61.179688 24.949219 61.207031 24.453125 61.207031 23.941406 L 61.207031 20.449219 L 61.210938 10.121094 L 61.203125 3.613281 C 61.203125 3.003906 61.164062 1.007812 61.265625 0.574219 C 61.660156 0.519531 62.066406 0.578125 62.496094 0.53125 Z M 77.113281 25.433594 C 75.992188 25.507812 74.320312 25.457031 73.164062 25.457031 L 66.046875 25.457031 C 65.1875 25.457031 63.730469 25.398438 62.925781 25.453125 C 62.925781 26.042969 62.898438 26.9375 62.9375 27.488281 C 63.25 27.484375 63.628906 27.464844 63.929688 27.464844 L 72.960938 27.480469 L 75.84375 27.472656 C 76.398438 27.472656 77.175781 27.496094 77.714844 27.449219 C 77.742188 26.148438 77.675781 24.625 77.746094 23.359375 C 77.527344 23.367188 77.296875 23.382812 77.078125 23.363281 C 77.09375 24.054688 77.09375 24.746094 77.113281 25.433594 Z M 77.082031 3.488281 C 77.082031 4.171875 77.089844 4.855469 77.109375 5.535156 C 76.613281 5.613281 74.980469 5.566406 74.371094 5.566406 L 68.753906 5.566406 C 67.941406 5.5625 66.546875 5.503906 65.796875 5.5625 C 65.804688 5.90625 65.769531 6.234375 65.769531 6.566406 C 65.777344 7.816406 65.734375 9.105469 65.765625 10.347656 L 65.785156 10.445312 C 65.898438 10.519531 66.3125 10.507812 66.464844 10.507812 C 66.371094 9.90625 66.464844 8.332031 66.410156 7.5625 C 66.785156 7.628906 67.535156 7.597656 67.941406 7.59375 C 68.730469 7.582031 69.519531 7.578125 70.308594 7.578125 L 75.191406 7.578125 C 75.9375 7.578125 77.003906 7.613281 77.730469 7.570312 C 77.726562 7.1875 77.769531 3.578125 77.703125 3.492188 L 77.636719 3.480469 C 77.453125 3.484375 77.261719 3.492188 77.082031 3.488281 Z M 65.808594 15.527344 C 65.746094 16.253906 65.769531 17.15625 65.769531 17.902344 C 65.769531 18.730469 65.75 19.605469 65.777344 20.425781 L 66.316406 20.441406 L 66.410156 20.421875 C 66.472656 20.320312 66.433594 17.808594 66.421875 17.496094 C 67.0625 17.582031 68.109375 17.527344 68.773438 17.53125 C 70.226562 17.546875 71.761719 17.484375 73.207031 17.53125 L 73.214844 14.671875 C 73.214844 14.28125 73.195312 13.800781 73.214844 13.421875 C 73 13.425781 72.773438 13.4375 72.558594 13.421875 C 72.5625 13.667969 72.582031 15.382812 72.542969 15.453125 C 72.210938 15.546875 71.359375 15.515625 70.984375 15.511719 L 67.542969 15.507812 C 67.171875 15.503906 66.113281 15.480469 65.808594 15.527344 Z M 67.140625 10.449219 C 67.132812 9.675781 67.132812 8.902344 67.144531 8.128906 C 68.097656 8.222656 69.699219 8.152344 70.734375 8.152344 L 78.4375 8.167969 C 78.480469 6.648438 78.429688 5.109375 78.445312 3.585938 C 78.449219 3.382812 78.4375 3.140625 78.417969 2.9375 C 77.972656 2.925781 77.53125 2.914062 77.085938 2.925781 C 77.066406 3.066406 77.050781 3.027344 77.113281 3.132812 C 77.371094 3.242188 77.785156 3.15625 78.070312 3.179688 C 78.054688 4.710938 78.027344 6.375 78.074219 7.902344 C 77.574219 7.851562 76.945312 7.871094 76.433594 7.871094 L 73.875 7.871094 C 71.523438 7.878906 69.105469 7.847656 66.761719 7.894531 C 66.726562 8.265625 66.726562 10.117188 66.792969 10.457031 C 66.886719 10.515625 67.058594 10.535156 67.140625 10.449219 Z M 72.734375 12.859375 C 72.582031 12.886719 72.609375 12.855469 72.53125 12.957031 C 72.613281 13.289062 73.25 13.070312 73.5 13.128906 C 73.5625 13.460938 73.53125 14.550781 73.523438 14.964844 C 73.507812 15.921875 73.554688 16.90625 73.546875 17.851562 C 72.640625 17.773438 71.113281 17.832031 70.152344 17.832031 C 69.222656 17.832031 67.644531 17.769531 66.761719 17.847656 C 66.734375 18.128906 66.710938 20.332031 66.808594 20.441406 C 66.921875 20.4375 67.046875 20.449219 67.132812 20.378906 C 67.175781 19.753906 67.132812 18.738281 67.140625 18.066406 C 67.707031 18.144531 68.984375 18.109375 69.621094 18.109375 L 73.917969 18.105469 C 73.929688 17.109375 73.933594 16.109375 73.925781 15.113281 C 73.925781 14.433594 73.941406 13.539062 73.898438 12.871094 C 73.53125 12.867188 73.09375 12.847656 72.734375 12.859375 Z M 78.410156 22.804688 C 78.257812 22.804688 78.085938 22.808594 77.9375 22.796875 C 77.6875 22.796875 77.253906 22.765625 77.066406 22.917969 L 77.070312 22.972656 C 77.304688 23.128906 77.789062 23.078125 78.0625 23.050781 C 78.074219 24.640625 78.03125 26.207031 78.074219 27.804688 C 77.257812 27.75 76.214844 27.777344 75.378906 27.777344 L 70.992188 27.777344 C 69.066406 27.765625 67.144531 27.765625 65.222656 27.78125 C 64.402344 27.785156 63.425781 27.75 62.625 27.792969 C 62.589844 27.316406 62.644531 25.75 62.578125 25.460938 C 62.488281 25.40625 62.304688 25.425781 62.214844 25.464844 C 62.257812 26.214844 62.242188 27.285156 62.234375 28.050781 C 67.621094 28.003906 73.054688 28.125 78.4375 28.046875 C 78.453125 26.976562 78.457031 25.910156 78.453125 24.84375 C 78.453125 24.335938 78.472656 23.277344 78.410156 22.804688 Z M 78.410156 22.804688 " fill-opacity="1" fill-rule="nonzero"/><g clip-path="url(#0131c1dad0)"><path fill="#7a5cbb" d="M 7.019531 0.527344 C 8.003906 0.585938 9.546875 0.542969 10.558594 0.542969 L 17.160156 0.542969 L 19.148438 0.535156 C 19.574219 0.53125 20.101562 0.511719 20.511719 0.558594 C 20.628906 0.722656 20.5625 2.308594 20.542969 2.613281 C 21.09375 2.621094 21.6875 2.640625 22.234375 2.605469 C 22.253906 3.066406 22.207031 3.6875 22.210938 4.171875 C 22.230469 5.589844 22.179688 7.058594 22.253906 8.476562 C 19.09375 8.332031 15.851562 8.488281 12.679688 8.429688 C 12.089844 8.421875 11.472656 8.484375 10.882812 8.429688 C 10.941406 8.972656 10.914062 10.019531 10.914062 10.597656 L 10.914062 14.453125 L 10.917969 18.3125 C 10.917969 18.894531 10.949219 19.890625 10.898438 20.453125 C 11.207031 20.414062 11.777344 20.425781 12.109375 20.425781 L 14.1875 20.429688 C 16.316406 20.433594 18.441406 20.429688 20.566406 20.414062 C 20.585938 20.601562 20.574219 20.769531 20.566406 20.960938 C 20.566406 21.476562 20.574219 21.996094 20.546875 22.511719 C 20.886719 22.464844 21.742188 22.527344 22.234375 22.488281 C 22.226562 24.425781 22.152344 26.417969 22.25 28.351562 C 21.992188 28.371094 21.542969 28.351562 21.265625 28.347656 C 20.667969 28.339844 20.070312 28.335938 19.472656 28.339844 L 11.917969 28.332031 C 10.738281 28.328125 8.78125 28.277344 7.632812 28.367188 C 7.671875 27.402344 7.617188 26.394531 7.664062 25.421875 C 7.421875 25.417969 7.175781 25.429688 6.933594 25.433594 L 6.953125 23.355469 C 6.449219 23.394531 5.910156 23.355469 5.371094 23.394531 C 5.425781 22.578125 5.390625 21.304688 5.394531 20.449219 C 5.152344 20.449219 4.910156 20.460938 4.667969 20.472656 C 4.695312 19.191406 4.679688 17.859375 4.679688 16.578125 L 4.679688 9.921875 L 4.675781 7.207031 C 4.675781 6.746094 4.652344 6.003906 4.714844 5.574219 C 4.90625 5.464844 6.574219 5.523438 6.953125 5.511719 C 6.945312 5.460938 6.941406 5.40625 6.9375 5.355469 C 6.878906 3.894531 6.980469 2.363281 6.933594 0.890625 C 6.929688 0.757812 6.925781 0.628906 7.019531 0.527344 Z M 20.554688 3.484375 C 20.550781 4.160156 20.539062 4.878906 20.574219 5.546875 C 20.121094 5.609375 18.597656 5.558594 18.039062 5.558594 L 12.125 5.554688 C 11.441406 5.554688 9.863281 5.511719 9.265625 5.566406 C 9.257812 7.019531 9.203125 20.332031 9.285156 20.4375 L 9.523438 20.414062 L 9.933594 20.449219 C 9.871094 19.191406 9.914062 17.570312 9.914062 16.273438 L 9.914062 7.554688 C 10.3125 7.632812 11.878906 7.597656 12.378906 7.601562 L 18.636719 7.601562 C 19.355469 7.605469 20.574219 7.550781 21.226562 7.613281 C 21.210938 6.460938 21.234375 4.757812 21.222656 3.546875 C 21.203125 3.527344 21.1875 3.503906 21.175781 3.488281 L 21.144531 3.480469 C 20.957031 3.484375 20.734375 3.496094 20.554688 3.484375 Z M 7.953125 25.425781 C 7.957031 26.085938 8.003906 27.425781 7.960938 28.046875 L 21.90625 28.046875 C 21.9375 27.101562 21.914062 26.066406 21.917969 25.113281 C 21.917969 24.417969 21.941406 23.460938 21.890625 22.792969 C 21.664062 22.800781 21.441406 22.796875 21.214844 22.792969 C 21.019531 22.796875 20.636719 22.773438 20.5 22.90625 L 20.488281 22.949219 C 20.785156 23.328125 21.550781 22.78125 21.539062 23.273438 C 21.511719 24.757812 21.46875 26.300781 21.554688 27.78125 C 20.523438 27.746094 19.351562 27.773438 18.308594 27.773438 C 16.429688 27.765625 14.550781 27.765625 12.671875 27.777344 C 11.371094 27.792969 9.609375 27.710938 8.363281 27.796875 C 8.339844 27.472656 8.402344 25.582031 8.265625 25.441406 C 8.136719 25.417969 8.085938 25.421875 7.953125 25.425781 Z M 5.703125 23.078125 L 6.953125 23.074219 C 6.953125 22.90625 6.980469 22.9375 6.890625 22.832031 C 6.664062 22.753906 6.34375 22.800781 6.09375 22.816406 C 6.089844 22.382812 6.113281 20.859375 6.058594 20.511719 C 5.960938 20.433594 5.828125 20.453125 5.691406 20.460938 C 5.683594 21.28125 5.730469 22.308594 5.703125 23.078125 Z M 6.382812 22.507812 L 6.957031 22.480469 C 6.945312 22 6.921875 20.898438 6.960938 20.449219 L 6.386719 20.464844 C 6.402344 20.933594 6.425781 22.070312 6.382812 22.507812 Z M 21.894531 2.914062 L 20.710938 2.917969 L 20.582031 2.9375 C 20.515625 3.039062 20.523438 2.996094 20.535156 3.097656 C 20.652344 3.214844 20.949219 3.199219 21.105469 3.195312 C 21.253906 3.191406 21.40625 3.183594 21.554688 3.175781 C 21.519531 4.082031 21.503906 4.992188 21.515625 5.902344 C 21.515625 6.546875 21.503906 7.253906 21.554688 7.890625 C 20.65625 7.835938 19.375 7.871094 18.449219 7.871094 L 12.859375 7.878906 C 12.125 7.878906 10.90625 7.929688 10.21875 7.875 C 10.175781 9.210938 10.207031 10.640625 10.210938 11.984375 L 10.222656 20.4375 L 10.628906 20.445312 C 10.554688 18.757812 10.589844 16.859375 10.589844 15.164062 C 10.585938 12.816406 10.59375 10.46875 10.621094 8.121094 C 11.015625 8.199219 13.109375 8.140625 13.679688 8.144531 L 19.140625 8.152344 C 20.027344 8.152344 21.042969 8.1875 21.914062 8.160156 C 21.902344 7.058594 21.902344 5.957031 21.910156 4.855469 C 21.914062 4.296875 21.9375 3.453125 21.894531 2.914062 Z M 21.222656 23.359375 C 21.003906 23.367188 20.765625 23.378906 20.550781 23.367188 C 20.550781 24.027344 20.535156 24.769531 20.574219 25.421875 C 19.617188 25.480469 18.351562 25.441406 17.359375 25.441406 L 11.40625 25.433594 C 10.664062 25.433594 9.332031 25.386719 8.644531 25.433594 C 8.675781 25.820312 8.660156 27.105469 8.621094 27.496094 C 8.835938 27.484375 9.058594 27.472656 9.269531 27.476562 C 12.0625 27.492188 14.855469 27.496094 17.644531 27.488281 L 19.863281 27.484375 C 20.269531 27.484375 20.839844 27.460938 21.230469 27.492188 C 21.175781 26.144531 21.242188 24.71875 21.222656 23.359375 Z M 21.222656 23.359375 " fill-opacity="1" fill-rule="nonzero"/></g><g clip-path="url(#5eeebdcb1c)"><g transform="matrix(1, 0, 0, 1, 208, 7)"><g clip-path="url(#9aebe29a7b)"><g fill="#000000" fill-opacity="1"><g transform="translate(0.274266, 18.58018)"><g><path d="M 8.59375 -16.625 C 10.414062 -16.625 11.894531 -16.25 13.03125 -15.5 C 14.175781 -14.75 15.015625 -13.75 15.546875 -12.5 C 16.078125 -11.25 16.34375 -9.863281 16.34375 -8.34375 C 16.34375 -6.832031 16.078125 -5.441406 15.546875 -4.171875 C 15.015625 -2.910156 14.175781 -1.898438 13.03125 -1.140625 C 11.894531 -0.378906 10.414062 0 8.59375 0 L 1.703125 0 L 1.703125 -16.625 Z M 8.21875 -1.671875 C 9.707031 -1.671875 10.882812 -1.929688 11.75 -2.453125 C 12.613281 -2.984375 13.234375 -3.75 13.609375 -4.75 C 13.984375 -5.75 14.171875 -6.945312 14.171875 -8.34375 C 14.171875 -9.757812 13.984375 -10.957031 13.609375 -11.9375 C 13.234375 -12.914062 12.613281 -13.660156 11.75 -14.171875 C 10.882812 -14.691406 9.707031 -14.953125 8.21875 -14.953125 L 3.78125 -14.953125 L 3.78125 -1.671875 Z M 8.21875 -1.671875 "/></g></g></g><g fill="#000000" fill-opacity="1"><g transform="translate(17.587978, 18.58018)"><g><path d="M 7.5 0.40625 C 6.101562 0.40625 4.9375 0.109375 4 -0.484375 C 3.0625 -1.078125 2.359375 -1.878906 1.890625 -2.890625 C 1.429688 -3.898438 1.203125 -5.03125 1.203125 -6.28125 C 1.203125 -7.53125 1.429688 -8.65625 1.890625 -9.65625 C 2.359375 -10.65625 3.0625 -11.445312 4 -12.03125 C 4.9375 -12.613281 6.101562 -12.90625 7.5 -12.90625 C 8.894531 -12.90625 10.054688 -12.609375 10.984375 -12.015625 C 11.910156 -11.421875 12.609375 -10.625 13.078125 -9.625 C 13.546875 -8.625 13.78125 -7.507812 13.78125 -6.28125 C 13.78125 -5.03125 13.546875 -3.898438 13.078125 -2.890625 C 12.609375 -1.878906 11.910156 -1.078125 10.984375 -0.484375 C 10.054688 0.109375 8.894531 0.40625 7.5 0.40625 Z M 3.21875 -6.25 C 3.21875 -4.5 3.578125 -3.222656 4.296875 -2.421875 C 5.015625 -1.617188 6.082031 -1.21875 7.5 -1.21875 C 8.914062 -1.21875 9.976562 -1.617188 10.6875 -2.421875 C 11.394531 -3.222656 11.75 -4.5 11.75 -6.25 C 11.75 -8.019531 11.394531 -9.300781 10.6875 -10.09375 C 9.976562 -10.882812 8.914062 -11.28125 7.5 -11.28125 C 6.082031 -11.28125 5.015625 -10.882812 4.296875 -10.09375 C 3.578125 -9.300781 3.21875 -8.019531 3.21875 -6.25 Z M 3.21875 -6.25 "/></g></g></g><g fill="#000000" fill-opacity="1"><g transform="translate(32.253395, 18.58018)"><g><path d="M 1.203125 -6.25 C 1.203125 -7.53125 1.4375 -8.671875 1.90625 -9.671875 C 2.382812 -10.671875 3.085938 -11.457031 4.015625 -12.03125 C 4.953125 -12.613281 6.097656 -12.90625 7.453125 -12.90625 C 9.335938 -12.90625 10.753906 -12.4375 11.703125 -11.5 C 12.648438 -10.5625 13.175781 -9.367188 13.28125 -7.921875 L 11.40625 -7.921875 C 11.25 -8.953125 10.851562 -9.769531 10.21875 -10.375 C 9.59375 -10.976562 8.695312 -11.28125 7.53125 -11.28125 C 6.207031 -11.28125 5.15625 -10.890625 4.375 -10.109375 C 3.601562 -9.335938 3.21875 -8.050781 3.21875 -6.25 C 3.21875 -4.4375 3.59375 -3.144531 4.34375 -2.375 C 5.09375 -1.601562 6.128906 -1.21875 7.453125 -1.21875 C 8.710938 -1.21875 9.675781 -1.539062 10.34375 -2.1875 C 11.007812 -2.84375 11.40625 -3.707031 11.53125 -4.78125 L 13.421875 -4.78125 C 13.367188 -3.820312 13.109375 -2.953125 12.640625 -2.171875 C 12.179688 -1.390625 11.515625 -0.765625 10.640625 -0.296875 C 9.773438 0.171875 8.710938 0.40625 7.453125 0.40625 C 6.085938 0.40625 4.941406 0.117188 4.015625 -0.453125 C 3.085938 -1.035156 2.382812 -1.828125 1.90625 -2.828125 C 1.4375 -3.835938 1.203125 -4.976562 1.203125 -6.25 Z M 1.203125 -6.25 "/></g></g></g><g fill="#000000" fill-opacity="1"><g transform="translate(46.594088, 18.58018)"><g><path d="M 0.953125 -4.171875 L 2.796875 -4.171875 C 2.847656 -3.609375 3.003906 -3.097656 3.265625 -2.640625 C 3.523438 -2.179688 3.9375 -1.8125 4.5 -1.53125 C 5.0625 -1.257812 5.820312 -1.125 6.78125 -1.125 C 7.875 -1.125 8.65625 -1.3125 9.125 -1.6875 C 9.601562 -2.0625 9.84375 -2.597656 9.84375 -3.296875 C 9.84375 -3.898438 9.660156 -4.367188 9.296875 -4.703125 C 8.929688 -5.035156 8.359375 -5.257812 7.578125 -5.375 L 4.671875 -5.796875 C 3.585938 -5.953125 2.75 -6.3125 2.15625 -6.875 C 1.570312 -7.4375 1.28125 -8.203125 1.28125 -9.171875 C 1.28125 -10.335938 1.71875 -11.253906 2.59375 -11.921875 C 3.476562 -12.585938 4.707031 -12.921875 6.28125 -12.921875 C 7.90625 -12.921875 9.175781 -12.550781 10.09375 -11.8125 C 11.007812 -11.070312 11.503906 -10.109375 11.578125 -8.921875 L 9.59375 -8.921875 C 9.53125 -9.578125 9.238281 -10.15625 8.71875 -10.65625 C 8.207031 -11.15625 7.375 -11.40625 6.21875 -11.40625 C 5.15625 -11.40625 4.390625 -11.210938 3.921875 -10.828125 C 3.453125 -10.441406 3.21875 -9.941406 3.21875 -9.328125 C 3.21875 -8.890625 3.359375 -8.5 3.640625 -8.15625 C 3.929688 -7.820312 4.46875 -7.59375 5.25 -7.46875 L 7.90625 -7.09375 C 9.332031 -6.882812 10.34375 -6.472656 10.9375 -5.859375 C 11.53125 -5.253906 11.828125 -4.4375 11.828125 -3.40625 C 11.828125 -2.132812 11.390625 -1.179688 10.515625 -0.546875 C 9.648438 0.0859375 8.382812 0.40625 6.71875 0.40625 C 5.375 0.40625 4.273438 0.207031 3.421875 -0.1875 C 2.578125 -0.59375 1.957031 -1.140625 1.5625 -1.828125 C 1.164062 -2.523438 0.960938 -3.304688 0.953125 -4.171875 Z M 0.953125 -4.171875 "/></g></g></g></g></g></g></svg>