<?xml version="1.0" encoding="utf-8" ?><svg xmlns="http://www.w3.org/2000/svg" xmlns:xlink="http://www.w3.org/1999/xlink" width="500" height="500" viewBox="0 0 500 500"><path fill="#243061" d="M112.169 6.36422C119.194 6.26957 126.612 6.44563 133.696 6.44687L183.273 6.42065L315.542 6.39795L364.865 6.42802C384.129 6.41677 405.201 6.23597 424.375 8.54868C439.82 10.4116 455.117 18.3695 466.591 28.9075C489.622 50.0581 492.395 75.5784 492.686 105.025L492.666 321.077L492.66 386.361C492.64 395.245 492.454 404.127 492.102 413.003C491.923 417.083 491.822 422.48 491.098 426.426C488.467 441.435 481.317 455.282 470.604 466.118C444.331 492.846 423.259 491.995 388.313 492.323C355.02 492.556 321.726 492.58 288.433 492.398L180.867 492.515L115.864 492.388C103.914 492.288 83.5043 492.312 71.9874 490.241C58.2901 487.729 45.5571 481.47 35.2027 472.158C25.7158 463.76 18.8557 455.433 13.9073 443.725C13.0243 441.35 11.4521 438.659 10.8655 436.194C9.38611 429.978 8.19054 423.514 7.42975 417.172C7.03949 413.919 7.32702 410.496 7.01563 407.309C6.06984 397.63 6.36125 388.037 6.4 378.334L6.47957 341.531L6.48957 222.608L6.48842 136.123C6.48849 113.171 5.12514 85.8739 11.2294 63.7057C17.178 42.1026 36.2387 21.7218 56.9769 13.7564C59.2047 12.926 61.6097 11.5817 63.8945 10.9649C76.7411 7.49687 89.515 6.92353 102.742 7.01719C105.813 7.03893 109.05 6.52728 112.169 6.36422Z"/><path fill="white" d="M246.478 157.528L271.639 157.622C274.588 157.636 281.071 157.398 284.071 158.127C285.843 160.304 283.607 174.491 285.402 175.684C287.498 177.076 296.522 176.308 299.63 176.87C300.321 180.49 299.34 188.077 300.456 190.027C302.486 191.231 310.177 189.736 310.733 191.067C312.152 194.466 310.041 205.58 311.856 208.369C313.303 209.322 317.065 208.961 318.785 208.659C319.941 202.873 319.082 196.606 319.745 190.826C319.84 190.813 319.935 190.8 320.029 190.786L320.504 190.728C323.289 190.37 329.071 190.86 330.871 189.892C331.12 189.584 331.468 189.158 331.468 188.761C331.465 184.907 331.369 180.697 331.55 176.876C336.201 175.983 341.259 176.845 345.906 176.302C346.304 170.17 345.764 163.678 346.29 157.672C357.211 156.988 369.329 157.961 380.36 157.689C381.314 157.666 382.96 157.988 383.83 158.36C384.358 160.152 384.06 174.388 384.058 177.456L384.034 229.28L384.034 291.091L383.973 309.113C383.945 312.414 383.949 318.081 383.408 321.246C378.636 321.526 373.377 321.433 368.567 321.474C362.168 321.529 355.638 321.651 349.263 321.179C348.391 316.573 348.707 306.307 348.706 301.009L348.714 264.875C348.717 255.268 348.78 245.66 348.902 236.054C348.913 232.679 349.087 224.854 348.65 221.831C346.935 221.588 344.524 221.396 342.904 221.977C341.014 223.624 342.663 243.396 341.841 247.075C340.166 249.179 333.704 247.166 331.271 248.354C330.216 250.721 330.638 261.963 330.541 265.414C326.851 265.58 304.176 265.942 302.158 264.98C301.264 262.748 301.98 252.251 301.35 247.776C297.959 247.809 291.965 248.066 288.811 247.688C288.453 243.641 289.075 227.844 287.879 224.978C286.263 223.768 283.576 224.333 281.629 224.595C281.353 227.406 281.484 231.227 281.467 234.121C281.408 240.39 281.414 246.66 281.485 252.929L281.419 298.611C281.419 303.615 281.801 317.279 280.904 321.329C276.644 321.678 269.622 321.501 265.073 321.496C259.195 321.49 251.861 321.699 246.117 321.342C245.088 311.958 245.469 298.224 245.479 288.529L245.474 239.18L245.47 180.986C245.52 173.873 245.33 166.647 245.519 159.539C245.546 158.54 245.774 158.147 246.478 157.528Z"/><path fill="#243061" d="M264.538 198.639C266.019 199.298 275.641 209.102 276.157 210.603C276.125 211.522 276.049 211.524 275.574 212.284C273.938 213.233 272.568 211.913 271.425 210.719C269.73 208.949 268.056 207.141 266.371 205.36C266.539 207.822 266.384 211.661 266.401 214.247C266.459 221.383 266.473 228.52 266.441 235.657L266.395 250.014C266.392 252.456 266.818 257.342 265.687 259.363C264.769 259.519 264.476 259.643 263.66 259.196C263.063 258.456 262.887 257.892 262.866 256.939C262.74 251.216 262.908 245.231 262.941 239.503L262.98 205.429C261.735 207.093 257.216 212.964 255.117 212.671C254.194 212.008 253.956 211.443 253.358 210.462C256.847 206.242 260.639 202.473 264.538 198.639Z"/><path fill="white" d="M117.797 157.635C119.916 157.5 122.301 157.534 124.43 157.579C137.954 157.869 151.688 157.258 165.185 157.608C165.538 163.837 165.405 170.508 165.362 176.755C165.325 182.262 165.378 187.96 165.183 193.451C160.179 194.076 147.148 193.474 141.348 193.561C140.859 198.967 141.049 206.131 141.051 211.632L141.058 240.2C141.031 249.223 141.074 258.247 141.187 267.27C141.201 271.83 140.972 279.766 141.581 283.942C142.708 284.45 162.547 284.246 165.306 284.314C165.625 292.995 165.472 302.394 165.434 311.095C165.404 314.56 165.418 318.026 165.476 321.492L135.553 321.489C130.247 321.492 122.981 321.691 117.833 321.225C117.104 316.412 117.579 307.268 117.212 301.78C114.835 301.62 106.295 302.359 104.992 300.75C104.206 296.097 104.38 284.925 104.362 279.81L104.461 237.588L104.477 195.922C104.487 190.377 104.038 180.763 104.77 175.644C106.601 173.935 113.564 174.824 116.807 174.485L117.185 174.443C117.282 172.046 117.281 158.712 117.797 157.635Z"/><path fill="#243061" d="M121.784 214.459C122.775 214.44 123.605 214.317 124.348 214.922C124.993 216.437 124.696 251.875 124.542 256.037C127.343 253.408 129.027 251.001 132.302 248.299L132.496 248.448C133.375 249.137 134.006 249.553 134.148 250.679C133.427 252.738 126.412 259.712 124.484 261.613C121.737 262.577 119.342 259.645 117.507 257.75C115.659 255.842 109.445 250.965 113.147 248.533C114.373 248.632 119.553 254.146 120.922 255.411C121.291 242.476 120.882 229.433 121.148 216.493C121.164 215.713 121.417 215.123 121.784 214.459Z"/><path fill="white" d="M191.196 266.301C197.963 265.921 206.372 266.517 213.238 266.553C216.047 266.568 224.759 266.639 226.906 267.088C227.767 271.225 227.624 297.303 226.952 301.698C223.202 301.851 219.452 301.629 215.615 301.821C215.003 307.028 215.353 315.719 215.186 321.366C213.015 321.478 210.569 321.442 208.375 321.459C196.773 321.528 184.349 321.682 172.787 321.382C172.305 318.34 172.319 310.376 172.369 307.043C172.481 299.712 172.265 291.507 172.662 284.252C177.888 284.26 185.173 284.457 190.246 284.147C190.489 279.343 190.217 274.628 190.255 269.83C190.267 268.34 190.157 267.294 191.196 266.301Z"/><path fill="white" d="M172.524 157.527C178.147 157.595 211.871 156.976 214.55 158.139C215.723 161.233 214.666 169.529 215.377 174.01L215.436 174.371C217.999 174.605 225.23 173.817 226.762 175.471C227.704 178.804 227.558 206.501 227.116 210.941C225.808 211.486 195.93 211.503 192.2 210.946C189.986 210.616 192.22 196.53 190.637 194.056C188.893 193.124 175.862 193.572 172.615 193.468C172.198 189.349 172.295 182.166 172.286 177.861C172.273 171.497 172.086 163.78 172.524 157.527Z"/><path fill="white" d="M371.451 334.095C373.993 334.467 381.33 342.399 383.258 344.626C381.733 346.759 373.315 356.032 370.775 355.128C369.561 352.642 375.155 348.097 376.821 346.207C374.328 346.532 370.324 346.384 367.681 346.358C363.412 346.316 359.144 346.304 354.875 346.323C349.271 346.368 339.269 346.612 334.003 346.187C333.054 345.468 333.185 343.694 333.787 342.91C336.143 342.314 345.714 342.493 348.682 342.494L376.214 342.523C374.605 340.718 370.953 338.012 370.581 335.752C370.48 335.138 371.055 334.552 371.451 334.095Z"/><path fill="#243061" d="M40.9344 474.342C42.2723 474.236 43.6495 473.931 44.6961 474.654C44.7911 475.499 44.7344 475.277 44.312 476.175C42.9432 475.851 41.3542 476.114 40.6141 474.886L40.9344 474.342Z"/><path fill="#243061" d="M53.2458 17.3034C54.4163 17.1157 55.8815 16.9986 56.6092 18.0692L56.4411 18.606C55.2279 18.6475 53.8814 18.9296 53.0822 17.9394L53.2458 17.3034Z"/><path fill="#243061" d="M34.5469 468.336C35.5611 468.272 36.2968 468.136 37.2578 468.455C37.9331 469.231 37.7175 469.012 37.7978 470.292C36.8448 470.015 35.0459 469.241 34.5469 468.336Z"/><path fill="#243061" d="M455.824 23.6646C456.217 23.2506 456.864 23.2114 457.305 23.5748C457.746 23.9381 457.831 24.5805 457.499 25.046C457.263 25.3779 456.862 25.5502 456.458 25.4925C456.055 25.4348 455.718 25.1568 455.584 24.772C455.45 24.3871 455.543 23.9599 455.824 23.6646Z"/><path fill="#243061" d="M481.013 51.8329C481.307 52.029 481.384 52.1511 481.632 52.4111C482.01 53.9621 481.981 54.9725 481.347 56.4403C480.58 55.3975 480.901 53.1589 481.013 51.8329Z"/><path fill="#243061" d="M480.747 443.023C481.239 443.192 481.107 443.149 481.545 443.46C481.864 444.534 481.641 445.728 481.535 446.877C481.381 446.834 481.227 446.79 481.072 446.747C480.676 445.563 480.762 444.294 480.747 443.023Z"/></svg>